<?xml version="1.0" standalone="no"?><!DOCTYPE svg PUBLIC "-//W3C//DTD SVG 1.1//EN" "http://www.w3.org/Graphics/SVG/1.1/DTD/svg11.dtd"><svg t="1644469239167" class="icon" viewBox="0 0 1024 1024" version="1.1" xmlns="http://www.w3.org/2000/svg" p-id="2243" width="32" height="32" xmlns:xlink="http://www.w3.org/1999/xlink"><defs><style type="text/css"></style></defs><path d="M680.557714 420.626286L390.637714 766.153143a12.013714 12.013714 0 0 1-5.449143 3.675428l-87.789714 29.110858a12.032 12.032 0 0 1-15.725714-13.165715l13.421714-91.52a11.995429 11.995429 0 0 1 2.688-5.997714l289.938286-345.526857a12.050286 12.050286 0 0 1 16.969143-1.481143l74.386285 62.409143a12.050286 12.050286 0 0 1 1.481143 16.969143z m95.634286-113.974857l-42.349714 50.468571a12.050286 12.050286 0 0 1-16.987429 1.499429l-74.386286-62.427429a12.050286 12.050286 0 0 1-1.462857-16.969143l42.349715-50.468571a12.050286 12.050286 0 0 1 16.969142-1.499429l74.386286 62.427429c5.101714 4.260571 5.76 11.867429 1.481143 16.969143z" p-id="2244"></path></svg>